<svg width="64" height="64" viewBox="0 0 64 64" xmlns="http://www.w3.org/2000/svg" shape-rendering="crispEdges">
  <!-- 하이라이트 효과 -->
  <rect x="0" y="0" width="64" height="4" fill="none" stroke="#FFD700" stroke-width="2"/>
  <rect x="0" y="60" width="64" height="4" fill="none" stroke="#FFD700" stroke-width="2"/>
  <rect x="0" y="0" width="4" height="64" fill="none" stroke="#FFD700" stroke-width="2"/>
  <rect x="60" y="0" width="4" height="64" fill="none" stroke="#FFD700" stroke-width="2"/>
  
  <!-- 점선 패턴 -->
  <line x1="8" y1="8" x2="16" y2="8" stroke="#FFD700" stroke-width="2"/>
  <line x1="24" y1="8" x2="32" y2="8" stroke="#FFD700" stroke-width="2"/>
  <line x1="40" y1="8" x2="48" y2="8" stroke="#FFD700" stroke-width="2"/>
  <line x1="56" y1="8" x2="8" y2="8" stroke="#FFD700" stroke-width="2"/>
  
  <line x1="8" y1="56" x2="16" y2="56" stroke="#FFD700" stroke-width="2"/>
  <line x1="24" y1="56" x2="32" y2="56" stroke="#FFD700" stroke-width="2"/>
  <line x1="40" y1="56" x2="48" y2="56" stroke="#FFD700" stroke-width="2"/>
  <line x1="56" y1="56" x2="8" y2="56" stroke="#FFD700" stroke-width="2"/>
  
  <line x1="8" y1="16" x2="8" y2="24" stroke="#FFD700" stroke-width="2"/>
  <line x1="8" y1="32" x2="8" y2="40" stroke="#FFD700" stroke-width="2"/>
  <line x1="8" y1="48" x2="8" y2="56" stroke="#FFD700" stroke-width="2"/>
  
  <line x1="56" y1="16" x2="56" y2="24" stroke="#FFD700" stroke-width="2"/>
  <line x1="56" y1="32" x2="56" y2="40" stroke="#FFD700" stroke-width="2"/>
  <line x1="56" y1="48" x2="56" y2="56" stroke="#FFD700" stroke-width="2"/>
</svg>