<svg width="128" height="128" viewBox="0 0 128 128" xmlns="http://www.w3.org/2000/svg">
  <!-- 타일 1: 잔디 -->
  <g id="grass">
    <rect width="32" height="32" fill="#4CAF50"/>
    <rect x="4" y="4" width="4" height="4" fill="#66BB6A"/>
    <rect x="20" y="12" width="4" height="4" fill="#66BB6A"/>
    <rect x="8" y="20" width="4" height="4" fill="#66BB6A"/>
  </g>

  <!-- 타일 2: 흙 -->
  <g transform="translate(32,0)" id="dirt">
    <rect width="32" height="32" fill="#8D6E63"/>
    <rect x="4" y="4" width="4" height="4" fill="#A1887F"/>
    <rect x="20" y="20" width="4" height="4" fill="#795548"/>
  </g>

  <!-- 타일 3: 길 -->
  <g transform="translate(64,0)" id="road">
    <rect width="32" height="32" fill="#9E9E9E"/>
    <rect x="14" y="0" width="4" height="32" fill="#757575"/>
    <rect x="0" y="14" width="32" height="4" fill="#757575"/>
  </g>

  <!-- 타일 4: 흙길 -->
  <g transform="translate(96,0)" id="path">
    <rect width="32" height="32" fill="#D7CCC8"/>
    <rect x="4" y="4" width="2" height="2" fill="#BCAAA4"/>
    <rect x="20" y="12" width="2" height="2" fill="#BCAAA4"/>
    <rect x="8" y="20" width="2" height="2" fill="#BCAAA4"/>
  </g>

  <!-- 타일 5: 물 -->
  <g transform="translate(0,32)" id="water">
    <rect width="32" height="32" fill="#2196F3"/>
    <rect x="4" y="8" width="4" height="4" fill="#64B5F6"/>
    <rect x="20" y="20" width="4" height="4" fill="#64B5F6"/>
  </g>

  <!-- 타일 6: 돌바닥 -->
  <g transform="translate(32,32)" id="stone">
    <rect width="32" height="32" fill="#757575"/>
    <rect x="2" y="2" width="12" height="12" fill="#9E9E9E"/>
    <rect x="18" y="18" width="12" height="12" fill="#616161"/>
  </g>

  <!-- 타일 7: 야생 잔디 -->
  <g transform="translate(64,32)" id="wild-grass">
    <rect width="32" height="32" fill="#388E3C"/>
    <rect x="0" y="16" width="2" height="16" fill="#4CAF50"/>
    <rect x="8" y="8" width="2" height="24" fill="#4CAF50"/>
    <rect x="16" y="12" width="2" height="20" fill="#4CAF50"/>
    <rect x="24" y="6" width="2" height="26" fill="#4CAF50"/>
  </g>

  <!-- 타일 8: 모래 -->
  <g transform="translate(96,32)" id="sand">
    <rect width="32" height="32" fill="#FFE082"/>
    <rect x="4" y="12" width="2" height="2" fill="#FFD54F"/>
    <rect x="20" y="16" width="2" height="2" fill="#FFD54F"/>
    <rect x="12" y="24" width="2" height="2" fill="#FFD54F"/>
  </g>

  <!-- 타일 9: 나무 장식 -->
  <g transform="translate(0,64)" id="tree">
    <rect width="32" height="32" fill="#4CAF50"/>
    <rect x="8" y="0" width="4" height="32" fill="#8D6E63"/>
    <circle cx="22" cy="10" r="10" fill="#2E7D32"/>
    <circle cx="10" cy="6" r="8" fill="#43A047"/>
    <circle cx="10" cy="20" r="6" fill="#66BB6A"/>
  </g>

  <!-- 타일 10: 꽃 장식 -->
  <g transform="translate(32,64)" id="flower">
    <rect width="32" height="32" fill="#4CAF50"/>
    <circle cx="16" cy="20" r="4" fill="#FFF"/>
    <circle cx="16" cy="16" r="4" fill="#FFF"/>
    <circle cx="12" cy="20" r="4" fill="#FFF"/>
    <circle cx="20" y="20" r="4" fill="#FFF"/>
    <circle cx="16" cy="20" r="2" fill="#FFEB3B"/>
  </g>

  <!-- 타일 11: 입구 하이라이트 -->
  <g transform="translate(64,64)" id="entrance">
    <rect width="32" height="32" fill="#FFEB3B" fill-opacity="0.5"/>
    <rect x="2" y="2" width="28" height="28" stroke="#FFC107" stroke-width="2" fill="none"/>
  </g>

  <!-- 타일 12: 그림자 -->
  <g transform="translate(96,64)" id="shadow">
    <rect width="32" height="32" fill="#000" fill-opacity="0.2"/>
  </g>

  <!-- 타일 13: 장애물 -->
  <g transform="translate(0,96)" id="obstacle">
    <rect width="32" height="32" fill="#5D4037"/>
    <rect x="4" y="4" width="24" height="24" fill="#4E342E"/>
    <rect x="8" y="8" width="16" height="16" fill="#3E2723"/>
  </g>

  <!-- 타일 14: 포탈 -->
  <g transform="translate(32,96)" id="portal">
    <rect width="32" height="32" fill="#9C27B0"/>
    <circle cx="16" cy="16" r="12" stroke="#E1BEE7" stroke-width="2" fill="none"/>
    <circle cx="16" cy="16" r="4" fill="#E1BEE7"/>
  </g>

  <!-- 타일 15: 상자 -->
  <g transform="translate(64,96)" id="crate">
    <rect width="32" height="32" fill="#8D6E63"/>
    <rect x="2" y="2" width="28" height="28" stroke="#A1887F" stroke-width="2" fill="none"/>
    <line x1="16" y1="2" x2="16" y2="30" stroke="#A1887F" stroke-width="2"/>
    <line x1="2" y1="16" x2="30" y2="16" stroke="#A1887F" stroke-width="2"/>
  </g>

  <!-- 타일 16: 빈 공간 -->
  <g transform="translate(96,96)" id="empty">
    <rect width="32" height="32" fill="#000" fill-opacity="0.1"/>
    <text x="16" y="20" font-size="8" fill="#FFF" text-anchor="middle">.</text>
  </g>
</svg>