<svg width="64" height="64" viewBox="0 0 64 64" xmlns="http://www.w3.org/2000/svg" shape-rendering="crispEdges">
  <!-- 배경 -->
  <rect x="0" y="0" width="64" height="64" fill="#4CAF50"/>
  
  <!-- 건물 본체 -->
  <rect x="4" y="16" width="56" height="44" fill="#8D6E63"/>
  <rect x="4" y="16" width="56" height="44" stroke="#5D4037" stroke-width="2"/>
  
  <!-- 지붕 (카페 스타일) -->
  <rect x="2" y="12" width="60" height="6" fill="#FF9800"/>
  <rect x="2" y="12" width="60" height="6" stroke="#EF6C00" stroke-width="2"/>
  <rect x="8" y="8" width="48" height="6" fill="#FFB74D"/>
  <rect x="8" y="8" width="48" height="6" stroke="#EF6C00" stroke-width="1"/>
  
  <!-- 입구 -->
  <rect x="24" y="36" width="16" height="24" fill="#6D4C41"/>
  <rect x="24" y="36" width="16" height="24" stroke="#4E342E" stroke-width="1"/>
  
  <!-- 커피 컵 표시 -->
  <ellipse cx="32" cy="44" rx="5" ry="5" fill="#FFFFFF"/>
  <ellipse cx="32" cy="44" rx="3" ry="3" fill="#795548"/>
  
  <!-- 창문 좌측 -->
  <rect x="8" y="24" width="12" height="12" fill="#B3E5FC"/>
  <rect x="8" y="24" width="12" height="12" stroke="#4FC3F7" stroke-width="2"/>
  <line x1="14" y1="24" x2="14" y2="36" stroke="#4FC3F7" stroke-width="1"/>
  <line x1="8" y1="30" x2="20" y2="30" stroke="#4FC3F7" stroke-width="1"/>
  
  <!-- 창문 우측 -->
  <rect x="44" y="24" width="12" height="12" fill="#B3E5FC"/>
  <rect x="44" y="24" width="12" height="12" stroke="#4FC3F7" stroke-width="2"/>
  <line x1="50" y1="24" x2="50" y2="36" stroke="#4FC3F7" stroke-width="1"/>
  <line x1="44" y1="30" x2="56" y2="30" stroke="#4FC3F7" stroke-width="1"/>
  
  <!-- 테이블/의자 표시 -->
  <rect x="4" y="54" width="10" height="6" fill="#A1887F"/>
  <rect x="50" y="54" width="10" height="6" fill="#A1887F"/>
</svg>