<svg width="64" height="64" viewBox="0 0 64 64" xmlns="http://www.w3.org/2000/svg" shape-rendering="crispEdges">
  <!-- 배경 -->
  <rect x="0" y="0" width="64" height="64" fill="#4CAF50"/>
  
  <!-- 건물 본체 -->
  <rect x="4" y="14" width="56" height="46" fill="#607D8B"/>
  <rect x="4" y="14" width="56" height="46" stroke="#455A64" stroke-width="2"/>
  
  <!-- 지붕 -->
  <polygon points="2,14 32,4 62,14" fill="#F44336"/>
  <polygon points="2,14 32,4" stroke="#C62828" stroke-width="2"/>
  <polygon points="62,14 32,4" stroke="#C62828" stroke-width="2"/>
  
  <!-- 입구 -->
  <rect x="24" y="36" width="16" height="24" fill="#546E7A"/>
  <rect x="24" y="36" width="16" height="24" stroke="#455A64" stroke-width="1"/>
  
  <!-- 창문 좌측 (긴 창문) -->
  <rect x="8" y="22" width="12" height="20" fill="#81C784"/>
  <rect x="8" y="22" width="12" height="20" stroke="#4CAF50" stroke-width="2"/>
  <line x1="14" y1="22" x2="14" y2="42" stroke="#4CAF50" stroke-width="1"/>
  <line x1="8" y1="28" x2="20" y2="28" stroke="#4CAF50" stroke-width="1"/>
  <line x1="8" y1="34" x2="20" y2="34" stroke="#4CAF50" stroke-width="1"/>
  
  <!-- 창문 우측 (긴 창문) -->
  <rect x="44" y="22" width="12" height="20" fill="#81C784"/>
  <rect x="44" y="22" width="12" height="20" stroke="#4CAF50" stroke-width="2"/>
  <line x1="50" y1="22" x2="50" y2="42" stroke="#4CAF50" stroke-width="1"/>
  <line x1="44" y1="28" x2="56" y2="28" stroke="#4CAF50" stroke-width="1"/>
  <line x1="44" y1="34" x2="56" y2="34" stroke="#4CAF50" stroke-width="1"/>
  
  <!-- 짐벌 표시 -->
  <rect x="28" y="42" width="8" height="4" fill="#FFC107"/>
  <rect x="26" y="46" width="12" height="2" fill="#FFA000"/>
  
  <!-- GYM 텍스트 -->
  <rect x="10" y="6" width="3" height="6" fill="#FFFFFF"/>
  <rect x="16" y="6" width="2" height="6" fill="#FFFFFF"/>
  <rect x="22" y="10" width="2" height="2" fill="#FFFFFF"/>
  <rect x="26" y="10" width="2" height="2" fill="#FFFFFF"/>
  <rect x="30" y="6" width="2" height="6" fill="#FFFFFF"/>
  <rect x="36" y="6" width="3" height="6" fill="#FFFFFF"/>
  <rect x="42" y="6" width="2" height="6" fill="#FFFFFF"/>
</svg>