<svg width="64" height="64" viewBox="0 0 64 64" xmlns="http://www.w3.org/2000/svg" shape-rendering="crispEdges">
  <!-- 배경 (잔디) -->
  <rect x="0" y="0" width="64" height="64" fill="#8BC34A"/>
  <rect x="0" y="0" width="64" height="64" stroke="#689F38" stroke-width="2"/>
  
  <!-- 중앙 분수 -->
  <rect x="24" y="28" width="16" height="24" fill="#90CAF9"/>
  <rect x="24" y="28" width="16" height="24" stroke="#42A5F5" stroke-width="2"/>
  <ellipse cx="32" cy="28" rx="8" ry="4" fill="#64B5F6"/>
  <rect x="30" y="20" width="4" height="10" fill="#BDBDBD"/>
  <ellipse cx="32" cy="20" rx="6" ry="3" fill="#E0E0E0"/>
  <ellipse cx="32" cy="18" rx="4" ry="2" fill="#42A5F5"/>
  
  <!-- 나무 좌측 -->
  <rect x="8" y="32" width="8" height="12" fill="#795548"/>
  <rect x="4" y="20" width="16" height="16" fill="#2E7D32"/>
  <rect x="6" y="22" width="4" height="4" fill="#43A047"/>
  <rect x="14" y="24" width="4" height="4" fill="#43A047"/>
  
  <!-- 나무 중앙 -->
  <rect x="28" y="4" width="8" height="12" fill="#795548"/>
  <rect x="24" y="0" width="16" height="8" fill="#2E7D32"/>
  <rect x="26" y="2" width="4" height="4" fill="#43A047"/>
  <rect x="34" y="2" width="4" height="4" fill="#43A047"/>
  
  <!-- 나무 우측 -->
  <rect x="48" y="32" width="8" height="12" fill="#795548"/>
  <rect x="44" y="20" width="16" height="16" fill="#2E7D32"/>
  <rect x="46" y="22" width="4" height="4" fill="#43A047"/>
  <rect x="54" y="24" width="4" height="4" fill="#43A047"/>
  
  <!-- 꽃 좌측 -->
  <rect x="12" y="48" width="2" height="6" fill="#4CAF50"/>
  <circle cx="13" cy="46" r="2" fill="#E91E63"/>
  
  <!-- 꽃 우측 -->
  <rect x="50" y="48" width="2" height="6" fill="#4CAF50"/>
  <circle cx="51" cy="46" r="2" fill="#FFEB3B"/>
  
  <!-- 벤치 -->
  <rect x="20" y="52" width="10" height="4" fill="#8D6E63"/>
  <rect x="34" y="52" width="10" height="4" fill="#8D6E63"/>
  <rect x="20" y="56" width="3" height="4" fill="#5D4037"/>
  <rect x="27" y="56" width="3" height="4" fill="#5D4037"/>
  <rect x="34" y="56" width="3" height="4" fill="#5D4037"/>
  <rect x="41" y="56" width="3" height="4" fill="#5D4037"/>
</svg>