<svg width="64" height="64" viewBox="0 0 64 64" xmlns="http://www.w3.org/2000/svg" shape-rendering="crispEdges">
  <!-- 배경 -->
  <rect x="0" y="0" width="64" height="64" fill="#4CAF50"/>
  
  <!-- 건물 본체 -->
  <rect x="4" y="12" width="56" height="48" fill="#795548"/>
  <rect x="4" y="12" width="56" height="48" stroke="#3E2723" stroke-width="2"/>
  
  <!-- 지붕 -->
  <polygon points="2,12 32,0 62,12" fill="#FF5722"/>
  <polygon points="2,12 32,0" stroke="#BF360C" stroke-width="2"/>
  <polygon points="62,12 32,0" stroke="#BF360C" stroke-width="2"/>
  
  <!-- 입구 -->
  <rect x="24" y="36" width="16" height="24" fill="#5D4037"/>
  <rect x="24" y="36" width="16" height="24" stroke="#3E2723" stroke-width="1"/>
  
  <!-- 창문 좌측 -->
  <rect x="8" y="20" width="12" height="12" fill="#81D4FA"/>
  <rect x="8" y="20" width="12" height="12" stroke="#039BE5" stroke-width="2"/>
  <line x1="14" y1="20" x2="14" y2="32" stroke="#039BE5" stroke-width="1"/>
  <line x1="8" y1="26" x2="20" y2="26" stroke="#039BE5" stroke-width="1"/>
  
  <!-- 창문 우측 -->
  <rect x="44" y="20" width="12" height="12" fill="#81D4FA"/>
  <rect x="44" y="20" width="12" height="12" stroke="#039BE5" stroke-width="2"/>
  <line x1="50" y1="20" x2="50" y2="32" stroke="#039BE5" stroke-width="1"/>
  <line x1="44" y1="26" x2="56" y2="26" stroke="#039BE5" stroke-width="1"/>
  
  <!-- 상점 간판 -->
  <rect x="20" y="4" width="24" height="8" fill="#FFD700"/>
  <rect x="20" y="4" width="24" height="8" stroke="#FF8F00" stroke-width="1"/>
</svg>