<svg width="150" height="120" xmlns="http://www.w3.org/2000/svg">
  <!-- 건물 본체 -->
  <rect x="5" y="35" width="140" height="80" fill="#FFFFFF" stroke="#D3D3D3" stroke-width="2"/>
  <!-- 벽돌 패턴 -->
  <line x1="5" y1="55" x2="145" y2="55" stroke="#E8E8E8" stroke-width="2"/>
  <line x1="5" y1="75" x2="145" y2="75" stroke="#E8E8E8" stroke-width="2"/>
  <line x1="5" y1="95" x2="145" y2="95" stroke="#E8E8E8" stroke-width="2"/>
  <!-- 지붕 -->
  <rect x="0" y="25" width="150" height="12" fill="#FF4500" stroke="#CC0000" stroke-width="2"/>
  <!-- 간판 -->
  <rect x="40" y="5" width="70" height="15" fill="#FF4500" stroke="#CC0000" stroke-width="2"/>
  <text x="75" y="17" font-family="Arial" font-size="11" font-weight="bold" fill="#FFF" text-anchor="middle">GYM</text>
  <!-- 문 -->
  <rect x="65" y="60" width="20" height="55" fill="#808080" stroke="#696969" stroke-width="2"/>
  <!-- 큰 창문 -->
  <rect x="15" y="45" width="40" height="45" fill="#87CEEB" stroke="#5F9EA0" stroke-width="2"/>
  <rect x="95" y="45" width="40" height="45" fill="#87CEEB" stroke="#5F9EA0" stroke-width="2"/>
  <!-- 덤벨 장식 -->
  <line x1="25" y1="60" x2="45" y2="60" stroke="#000" stroke-width="2"/>
  <circle cx="25" cy="60" r="3" fill="#000"/>
  <circle cx="45" cy="60" r="3" fill="#000"/>
  <line x1="25" y1="75" x2="45" y2="75" stroke="#000" stroke-width="2"/>
  <circle cx="25" cy="75" r="3" fill="#000"/>
  <circle cx="45" cy="75" r="3" fill="#000"/>
  <line x1="105" y1="60" x2="125" y2="60" stroke="#000" stroke-width="2"/>
  <circle cx="105" cy="60" r="3" fill="#000"/>
  <circle cx="125" cy="60" r="3" fill="#000"/>
  <line x1="105" y1="75" x2="125" y2="75" stroke="#000" stroke-width="2"/>
  <circle cx="105" cy="75" r="3" fill="#000"/>
  <circle cx="125" cy="75" r="3" fill="#000"/>
  <!-- 입구 하이라이트 -->
  <rect x="60" y="90" width="30" height="15" fill="rgba(255,255,255,0.3)" stroke="#FFD700" stroke-width="2" stroke-dasharray="4,2"/>
</svg>