<svg width="150" height="120" xmlns="http://www.w3.org/2000/svg">
  <!-- 건물 본체 -->
  <rect x="5" y="35" width="140" height="80" fill="#708090" stroke="#4A5D6C" stroke-width="2"/>
  <!-- 지붕 -->
  <rect x="0" y="25" width="150" height="15" fill="#4682B4" stroke="#2F4F4F" stroke-width="2"/>
  <!-- 기둥 -->
  <rect x="15" y="25" width="10" height="35" fill="#A9A9A9" stroke="#696969" stroke-width="2"/>
  <rect x="50" y="25" width="10" height="35" fill="#A9A9A9" stroke="#696969" stroke-width="2"/>
  <rect x="90" y="25" width="10" height="35" fill="#A9A9A9" stroke="#696969" stroke-width="2"/>
  <rect x="125" y="25" width="10" height="35" fill="#A9A9A9" stroke="#696969" stroke-width="2"/>
  <!-- 간판 -->
  <rect x="40" y="5" width="70" height="15" fill="#87CEEB" stroke="#4682B4" stroke-width="2"/>
  <text x="75" y="17" font-family="Arial" font-size="11" font-weight="bold" fill="#FFF" text-anchor="middle">LIBRARY</text>
  <!-- 문 -->
  <rect x="65" y="60" width="20" height="55" fill="#5F9EA0" stroke="#4A7080" stroke-width="2"/>
  <!-- 창문 -->
  <rect x="25" y="60" width="30" height="35" fill="#B0C4DE" stroke="#778899" stroke-width="2"/>
  <rect x="95" y="60" width="30" height="35" fill="#B0C4DE" stroke="#778899" stroke-width="2"/>
  <!-- 책 장식 -->
  <rect x="28" y="63" width="24" height="6" fill="#8B0000"/>
  <rect x="28" y="71" width="24" height="6" fill="#00008B"/>
  <rect x="28" y="79" width="24" height="6" fill="#006400"/>
  <rect x="98" y="63" width="24" height="6" fill="#008080"/>
  <rect x="98" y="71" width="24" height="6" fill="#FF8C00"/>
  <rect x="98" y="79" width="24" height="6" fill="#800080"/>
  <!-- 입구 하이라이트 -->
  <rect x="60" y="85" width="30" height="15" fill="rgba(255,255,255,0.3)" stroke="#FFD700" stroke-width="2" stroke-dasharray="4,2"/>
</svg>