<svg width="200" height="150" xmlns="http://www.w3.org/2000/svg">
  <!-- 공원 바닥 -->
  <rect x="0" y="80" width="200" height="70" fill="#228B22" stroke="#006400" stroke-width="2"/>
  <!-- 나무 1 -->
  <rect x="15" y="50" width="15" height="30" fill="#8B4513" stroke="#5C3317" stroke-width="2"/>
  <ellipse cx="22" cy="40" rx="25" ry="20" fill="#32CD32" stroke="#228B22" stroke-width="2"/>
  <!-- 나무 2 -->
  <rect x="65" y="50" width="15" height="30" fill="#8B4513" stroke="#5C3317" stroke-width="2"/>
  <ellipse cx="72" cy="40" rx="25" ry="20" fill="#32CD32" stroke="#228B22" stroke-width="2"/>
  <!-- 나무 3 -->
  <rect x="120" y="50" width="15" height="30" fill="#8B4513" stroke="#5C3317" stroke-width="2"/>
  <ellipse cx="127" cy="40" rx="25" ry="20" fill="#32CD32" stroke="#228B22" stroke-width="2"/>
  <!-- 나무 4 -->
  <rect x="170" y="50" width="15" height="30" fill="#8B4513" stroke="#5C3317" stroke-width="2"/>
  <ellipse cx="177" cy="40" rx="25" ry="20" fill="#32CD32" stroke="#228B22" stroke-width="2"/>
  <!-- 벤치 -->
  <rect x="40" y="100" width="60" height="10" fill="#8B4513" stroke="#5C3317" stroke-width="2"/>
  <rect x="40" y="90" width="10" height="15" fill="#8B4513" stroke="#5C3317" stroke-width="2"/>
  <rect x="90" y="90" width="10" height="15" fill="#8B4513" stroke="#5C3317" stroke-width="2"/>
  <!-- 화단 -->
  <rect x="110" y="105" width="70" height="15" fill="#FFB6C1" stroke="#FF69B4" stroke-width="2"/>
  <!-- 꽃 -->
  <circle cx="120" cy="112" r="5" fill="#FF4500"/>
  <circle cx="135" cy="112" r="5" fill="#FFD700"/>
  <circle cx="150" cy="112" r="5" fill="#800080"/>
  <circle cx="165" cy="112" r="5" fill="#FF0000"/>
  <!-- 입구 하이라이트 -->
  <rect x="85" y="80" width="30" height="20" fill="rgba(255,255,255,0.3)" stroke="#FFD700" stroke-width="2" stroke-dasharray="4,2"/>
  <!-- 간판 -->
  <text x="100" y="25" font-family="Arial" font-size="16" font-weight="bold" fill="#228B22" text-anchor="middle">PARK</text>
</svg>