<svg width="256" height="64" viewBox="0 0 256 64" xmlns="http://www.w3.org/2000/svg">
  <!-- 행복 -->
  <circle cx="16" cy="16" r="15" fill="#FFD93D"/>
  <circle cx="12" cy="14" r="2" fill="#000"/>
  <circle cx="20" cy="14" r="2" fill="#000"/>
  <path d="M10 20 Q16 26 22 20" stroke="#000" fill="none" stroke-width="2"/>

  <!-- 슬픔 -->
  <g transform="translate(32,0)">
    <circle cx="16" cy="16" r="15" fill="#6EC6FF"/>
    <circle cx="12" cy="14" r="2" fill="#000"/>
    <circle cx="20" cy="14" r="2" fill="#000"/>
    <path d="M10 22 Q16 18 22 22" stroke="#000" fill="none" stroke-width="2"/>
  </g>

  <!-- 분노 -->
  <g transform="translate(64,0)">
    <circle cx="16" cy="16" r="15" fill="#FF6B6B"/>
    <line x1="10" y1="12" x2="14" y2="14" stroke="#000" stroke-width="2"/>
    <line x1="14" y1="12" x2="10" y2="14" stroke="#000" stroke-width="2"/>
    <line x1="18" y1="12" x2="22" y2="14" stroke="#000" stroke-width="2"/>
    <line x1="22" y1="12" x2="18" y2="14" stroke="#000" stroke-width="2"/>
    <rect x="12" y="20" width="8" height="2" fill="#000"/>
  </g>

  <!-- 놀람 -->
  <g transform="translate(96,0)">
    <circle cx="16" cy="16" r="15" fill="#E1BEE7"/>
    <circle cx="12" cy="14" r="2" fill="#000"/>
    <circle cx="20" cy="14" r="2" fill="#000"/>
    <circle cx="16" cy="22" r="3" fill="#000"/>
  </g>

  <!-- 중립 -->
  <g transform="translate(128,0)">
    <circle cx="16" cy="16" r="15" fill="#B0BEC5"/>
    <circle cx="12" cy="14" r="2" fill="#000"/>
    <circle cx="20" cy="14" r="2" fill="#000"/>
    <line x1="10" y1="20" x2="22" y2="20" stroke="#000" stroke-width="2"/>
  </g>

  <!-- 사랑 -->
  <g transform="translate(160,0)">
    <circle cx="16" cy="16" r="15" fill="#FF80AB"/>
    <path d="M16 25 C8 18 8 12 12 10 C14 9 16 11 16 12 C16 11 18 9 20 10 C24 12 24 18 16 25" fill="#FF4081"/>
  </g>

  <!-- 증오 -->
  <g transform="translate(192,0)">
    <circle cx="16" cy="16" r="15" fill="#9E9E9E"/>
    <path d="M10 10 L6 6 M14 10 L10 6" stroke="#000" stroke-width="2"/>
    <path d="M22 10 L26 6 M18 10 L22 6" stroke="#000" stroke-width="2"/>
    <line x1="10" y1="22" x2="22" y2="22" stroke="#000" stroke-width="2"/>
  </g>

  <!-- 공포 -->
  <g transform="translate(224,0)">
    <circle cx="16" cy="16" r="15" fill="#CFD8DC"/>
    <circle cx="12" cy="14" r="3" fill="#000"/>
    <circle cx="20" cy="14" r="3" fill="#000"/>
    <ellipse cx="16" cy="20" rx="4" ry="2" fill="#000"/>
  </g>

  <!-- 흥분 -->
  <g transform="translate(0,32)">
    <circle cx="16" cy="16" r="15" fill="#FFF59D"/>
    <circle cx="12" cy="14" r="2" fill="#000"/>
    <circle cx="20" cy="14" r="2" fill="#000"/>
    <path d="M10 20 Q16 26 22 20" stroke="#000" fill="none" stroke-width="2"/>
    <circle cx="24" cy="8" r="3" fill="#FFF"/>
  </g>

  <!-- 피로 -->
  <g transform="translate(32,32)">
    <circle cx="16" cy="16" r="15" fill="#90A4AE"/>
    <path d="M10 14 L14 14 M12 12 L12 16" stroke="#000" stroke-width="2"/>
    <path d="M18 14 L22 14 M20 12 L20 16" stroke="#000" stroke-width="2"/>
    <path d="M10 22 Q16 20 22 22" stroke="#000" fill="none" stroke-width="2"/>
  </g>

  <!-- 혼란 -->
  <g transform="translate(64,32)">
    <circle cx="16" cy="16" r="15" fill="#BCAAA4"/>
    <circle cx="12" cy="14" r="2" fill="#000"/>
    <circle cx="20" cy="14" r="2" fill="#000"/>
    <text x="12" y="22" font-size="6" fill="#000">?</text>
  </g>

  <!-- 자부 -->
  <g transform="translate(96,32)">
    <circle cx="16" cy="16" r="15" fill="#C5E1A5"/>
    <circle cx="12" cy="14" r="2" fill="#000"/>
    <circle cx="20" cy="14" r="2" fill="#000"/>
    <path d="M8 22 Q16 20 24 22 Q16 24 8 22" stroke="#000" fill="none" stroke-width="2"/>
  </g>

  <!-- 수줍음 -->
  <g transform="translate(128,32)">
    <circle cx="16" cy="16" r="15" fill="#F8BBD0"/>
    <circle cx="12" cy="14" r="2" fill="#000"/>
    <circle cx="20" cy="14" r="2" fill="#000"/>
    <path d="M10 20 Q16 24 22 20" stroke="#000" fill="none" stroke-width="2"/>
    <rect x="6" y="16" width="4" height="4" fill="#FF80AB" rx="1"/>
  </g>

  <!-- 당황 -->
  <g transform="translate(160,32)">
    <circle cx="16" cy="16" r="15" fill="#E57373"/>
    <circle cx="12" cy="14" r="2" fill="#000"/>
    <circle cx="20" cy="14" r="2" fill="#000"/>
    <path d="M10 20 Q16 22 22 20" stroke="#000" fill="none" stroke-width="2"/>
    <rect x="4" y="14" width="6" height="4" fill="#FF8A80" rx="1"/>
  </g>

  <!-- 호기심 -->
  <g transform="translate(192,32)">
    <circle cx="16" cy="16" r="15" fill="#81D4FA"/>
    <circle cx="12" cy="14" r="2" fill="#000"/>
    <circle cx="20" cy="14" r="2" fill="#000"/>
    <text x="14" y="22" font-size="6" fill="#000">?</text>
  </g>

  <!-- 혐오 -->
  <g transform="translate(224,32)">
    <circle cx="16" cy="16" r="15" fill="#AED581"/>
    <circle cx="12" cy="14" r="2" fill="#000"/>
    <circle cx="20" cy="14" r="2" fill="#000"/>
    <path d="M8 22 Q16 20 24 22" stroke="#000" fill="none" stroke-width="2"/>
    <rect x="6" y="18" width="4" height="2" fill="#7CB342"/>
  </g>
</svg>